<svg width="120" height="240" viewBox="0 0 120 240" fill="none" xmlns="http://www.w3.org/2000/svg">
<path d="M120 234C120 237.314 117.312 240.016 114.002 239.85C84.3601 238.368 56.2338 225.939 35.1472 204.853C12.6428 182.348 -8.85339e-07 151.826 0 120C8.85339e-07 88.174 12.6428 57.6515 35.1472 35.1472C56.2338 14.0605 84.3601 1.63208 114.002 0.149833C117.312 -0.0156616 120 2.68629 120 6V6C120 9.31371 117.311 11.9826 114.002 12.1665C87.545 13.637 62.4682 24.7967 43.6325 43.6325C23.3785 63.8864 12 91.3566 12 120C12 148.643 23.3785 176.114 43.6325 196.368C62.4682 215.203 87.545 226.363 114.002 227.833C117.311 228.017 120 230.686 120 234V234Z" fill="url(#paint0_linear)"/>
<defs>
<linearGradient id="paint0_linear" x1="120" y1="0" x2="120" y2="240" gradientUnits="userSpaceOnUse">
<stop stop-color="white"/>
<stop offset="1" stop-color="white" stop-opacity="0"/>
</linearGradient>
</defs>
</svg>
