<svg width="162" height="130" viewBox="0 0 162 130" fill="none" xmlns="http://www.w3.org/2000/svg">
<g clip-path="url(#clip0)">
<path opacity="0.1" d="M52.0881 5.06879C57.0794 0.622326 64.9167 -0.280583 72.0486 0.0695578C94.4529 1.1832 114.676 11.9938 132.169 24.2228C138.501 28.6498 144.736 33.4205 148.847 39.5171C157.215 51.9293 154.733 69.1218 143.097 79.3456C139.138 82.8243 134.34 85.4909 129.412 87.856C120.655 92.0593 111.199 95.4327 101.257 96.3939C94.1659 97.078 86.987 96.522 79.9394 95.5656C60.2432 92.8974 40.9151 86.9887 24.7135 76.893C17.6075 72.4628 10.9086 66.9562 7.97997 59.788C5.05132 52.6198 6.92591 43.5454 14.1892 39.2983C17.1908 37.5443 20.7794 36.7517 24.2919 36.0076C29.4632 34.9118 34.7173 33.8322 39.3827 31.6065C44.2021 29.3063 49.9102 24.8582 48.9502 19.7731C47.9189 14.307 47.1081 9.50391 52.0881 5.06879Z" fill="#E8368F"/>
<path opacity="0.1" d="M28.2292 26.0823C31.0503 26.0823 33.3373 23.7962 33.3373 20.9761C33.3373 18.156 31.0503 15.8699 28.2292 15.8699C25.4081 15.8699 23.1211 18.156 23.1211 20.9761C23.1211 23.7962 25.4081 26.0823 28.2292 26.0823Z" fill="#E8368F"/>
<path opacity="0.1" d="M17.5281 11.9795C19.2745 11.9795 20.6903 10.5642 20.6903 8.81846C20.6903 7.0727 19.2745 5.65747 17.5281 5.65747C15.7817 5.65747 14.366 7.0727 14.366 8.81846C14.366 10.5642 15.7817 11.9795 17.5281 11.9795Z" fill="#E8368F"/>
<path opacity="0.1" d="M150.092 20.4898C151.167 20.4898 152.038 19.6189 152.038 18.5446C152.038 17.4703 151.167 16.5994 150.092 16.5994C149.018 16.5994 148.146 17.4703 148.146 18.5446C148.146 19.6189 149.018 20.4898 150.092 20.4898Z" fill="#E8368F"/>
<path opacity="0.1" d="M111.879 129.236C119.423 129.236 125.539 128.626 125.539 127.874C125.539 127.122 119.423 126.513 111.879 126.513C104.334 126.513 98.2184 127.122 98.2184 127.874C98.2184 128.626 104.334 129.236 111.879 129.236Z" fill="#E8368F"/>
<path d="M34.7027 78.9939L34.6427 82.2278L34.1627 108.441L30.0535 118.061L15.8919 118.223V80.4836L30.6714 79.3132L34.7027 78.9939Z" fill="#5F5D7E"/>
<path opacity="0.1" d="M34.7027 78.9939L34.6427 82.2278L34.1627 108.441L30.0535 118.061L15.8919 118.223V80.4836L30.6714 79.3132L34.7027 78.9939Z" fill="black"/>
<path d="M34.7027 78.9939L34.6427 82.2278L34.1627 108.441L30.0535 118.061L31.1351 82.2894L31.1319 82.2667L30.6714 79.3132L34.7027 78.9939Z" fill="#5F5D7E"/>
<path opacity="0.1" d="M30.6714 79.3132L34.7027 78.9939L34.6427 82.2278L31.1319 82.2667L15.8919 82.4369V80.4836L30.6714 79.3132Z" fill="black"/>
<path d="M162 80.4836V118.005H158.703L145.513 108.388V79.425L157.297 78.3179L158.021 78.6502L158.703 78.9647L162 80.4836Z" fill="#5F5D7E"/>
<path opacity="0.1" d="M162 78.6504H158.703V118.006H162V78.6504Z" fill="black"/>
<path opacity="0.1" d="M162 78.6502V80.8078L158.703 80.8451L145.513 80.9909V79.425L157.297 78.3179L158.021 78.6502L158.703 78.9647V78.6502H162Z" fill="black"/>
<path d="M162 77.4264V80.4836L0 82.2894V78.399L15.2432 75.319L147.892 74.3464L162 77.4264Z" fill="#5F5D7E"/>
<path opacity="0.1" d="M162 77.4265V80.4838L0 82.2896V78.3991L162 77.4265Z" fill="black"/>
<path d="M112.313 31.605H62.9708C60.9271 31.605 59.2703 33.2612 59.2703 35.3042V71.9474C59.2703 73.9904 60.9271 75.6465 62.9708 75.6465H112.313C114.357 75.6465 116.014 73.9904 116.014 71.9474V35.3042C116.014 33.2612 114.357 31.605 112.313 31.605Z" fill="#474157"/>
<path d="M111.532 35.5781H63.8367V71.5048H111.532V35.5781Z" fill="#EDEDF4"/>
<path d="M61.9752 54.3222C62.4068 54.3222 62.7568 53.9724 62.7568 53.5409C62.7568 53.1093 62.4068 52.7595 61.9752 52.7595C61.5435 52.7595 61.1935 53.1093 61.1935 53.5409C61.1935 53.9724 61.5435 54.3222 61.9752 54.3222Z" fill="#E6E8EC"/>
<path d="M113.645 54.9139C114.357 54.9139 114.934 54.3369 114.934 53.6251C114.934 52.9134 114.357 52.3364 113.645 52.3364C112.933 52.3364 112.356 52.9134 112.356 53.6251C112.356 54.3369 112.933 54.9139 113.645 54.9139Z" fill="#E6E8EC"/>
<path d="M92.8264 53.68L86.7275 49.9743C86.6008 49.9042 86.458 49.8683 86.3132 49.8701C86.1684 49.8719 86.0266 49.9114 85.9017 49.9847C85.7768 50.058 85.6732 50.1626 85.601 50.2881C85.5289 50.4136 85.4907 50.5558 85.4902 50.7005V57.9076C85.4907 58.0524 85.5289 58.1945 85.601 58.32C85.6732 58.4455 85.7768 58.5501 85.9017 58.6234C86.0266 58.6967 86.1684 58.7362 86.3132 58.738C86.458 58.7399 86.6008 58.7039 86.7275 58.6338L92.8264 55.1356C92.9557 55.0631 93.0633 54.9574 93.1382 54.8295C93.2131 54.7016 93.2526 54.556 93.2526 54.4078C93.2526 54.2596 93.2131 54.1141 93.1382 53.9862C93.0633 53.8582 92.9557 53.7526 92.8264 53.68ZM97.4124 54.3041C97.4124 52.6048 96.9083 50.9438 95.9639 49.5309C95.0196 48.1181 93.6773 47.0169 92.1068 46.3666C90.5364 45.7164 88.8083 45.5462 87.1411 45.8777C85.4739 46.2092 83.9425 47.0275 82.7405 48.229C81.5385 49.4305 80.72 50.9614 80.3884 52.628C80.0567 54.2945 80.2269 56.022 80.8774 57.5919C81.5279 59.1617 82.6295 60.5035 84.0429 61.4476C85.4563 62.3916 87.118 62.8955 88.8178 62.8955C91.0972 62.8955 93.2833 61.9903 94.8951 60.3791C96.5069 58.7679 97.4124 56.5826 97.4124 54.3041ZM81.887 54.3041C81.887 52.9338 82.2935 51.5943 83.055 50.4549C83.8166 49.3156 84.8991 48.4276 86.1655 47.9032C87.4319 47.3788 88.8255 47.2416 90.1699 47.5089C91.5144 47.7763 92.7493 48.4361 93.7186 49.4051C94.6879 50.374 95.348 51.6085 95.6154 52.9524C95.8829 54.2964 95.7456 55.6894 95.221 56.9554C94.6965 58.2214 93.8081 59.3034 92.6684 60.0647C91.5286 60.826 90.1886 61.2323 88.8178 61.2323C87.9076 61.2325 87.0062 61.0535 86.1652 60.7054C85.3243 60.3573 84.5601 59.8469 83.9165 59.2035C83.2729 58.5602 82.7624 57.7963 82.4141 56.9556C82.0659 56.115 81.8868 55.214 81.887 54.3041Z" fill="#E8368F"/>
<path d="M130.359 82.5327C130.326 82.3344 130.265 82.1421 130.176 81.9621C130.299 81.5422 130.378 81.2845 130.378 81.2845C130.378 81.2845 130.378 81.2229 130.359 81.1224C130.262 80.5284 129.953 79.9895 129.49 79.6057C129.026 79.2218 128.439 79.0189 127.837 79.0345C126.864 79.0523 125.019 79.1172 122.972 79.3474C123.089 78.5287 123.229 77.5496 123.375 76.5414L123.642 76.5706C123.704 76.5706 123.769 76.5706 123.833 76.5803H123.919C124.133 76.5936 124.344 76.5291 124.513 76.3987C124.554 76.3584 124.585 76.3084 124.603 76.2532C124.62 76.1981 124.624 76.1395 124.613 76.0826C124.602 76.0258 124.577 75.9725 124.541 75.9275C124.505 75.8825 124.458 75.8473 124.404 75.8249C124.643 75.8487 124.885 75.8125 125.106 75.7197C125.328 75.6269 125.523 75.4803 125.674 75.2932C125.812 75.1007 125.886 74.87 125.886 74.6334C125.886 74.3968 125.812 74.1662 125.674 73.9737C125.332 73.4874 124.607 73.1632 124.568 72.5909C124.547 72.2667 124.764 71.975 124.935 71.688C125.345 70.9718 125.509 70.1407 125.401 69.3223C125.294 68.5039 124.921 67.7434 124.339 67.1573C124.111 66.931 123.871 66.7172 123.619 66.517C123.263 65.2072 122.89 64.0368 122.779 63.9995C122.637 63.9525 122.392 63.6445 122.158 63.3803C122.18 63.1574 122.176 62.9328 122.147 62.7108C121.975 61.5761 120.85 60.7656 120.23 59.7638C119.611 58.762 119.499 57.5349 119.658 56.3872C119.817 55.2395 120.217 54.1291 120.543 53.009C120.786 52.1774 120.989 51.294 120.717 50.4689C120.524 49.8804 120.104 49.3714 119.671 48.8932C118.631 47.7439 117.433 46.6676 115.954 45.9754C114.926 45.491 113.8 45.2502 112.664 45.2719H112.652L112.474 45.2816L112.348 45.2897L112.221 45.3027L112.086 45.3156C111.949 45.3335 111.812 45.3545 111.676 45.3821C110.688 45.1626 109.68 45.0495 108.668 45.0449H108.537C108.237 45.0272 107.938 45.0976 107.677 45.2475C107.317 45.4988 107.272 45.9495 107.163 46.3417C106.968 46.9983 106.557 47.5695 105.996 47.9628C105.608 48.2416 105.152 48.4491 104.783 48.7408C104.413 49.0326 104.124 49.4703 104.223 49.9015C104.306 50.263 104.643 50.5321 105.034 50.6958C104.987 50.7542 104.938 50.8109 104.893 50.8709C104.969 50.9017 105.055 50.9292 105.125 50.9519C105.611 51.0962 106.135 51.114 106.628 51.2453C106.764 51.2816 106.897 51.3266 107.027 51.3799C106.588 52.2044 106.36 53.124 106.36 54.0578C106.362 55.0948 106.644 56.112 107.175 57.0026C107.706 57.8932 108.468 58.6242 109.38 59.1186C109.38 59.1737 109.38 59.2272 109.38 59.2807C109.43 60.9731 109.302 63.0318 108.436 63.3803C107.57 63.7288 106.742 64.1227 106.231 64.3772L106.069 64.4631C105.934 64.4015 105.799 64.3367 105.668 64.2686C105.668 64.2686 104.979 64.1876 105.099 64.7128C105.099 64.7128 103.015 64.3886 101.872 65.2785C100.729 66.1685 98.8524 68.0261 98.4843 68.5108C98.1162 68.9955 95.2702 70.0557 95.2702 70.0557C95.2702 70.0557 96.167 68.8026 95.7794 67.2675C95.7794 67.2675 95.3513 65.4163 95.5556 64.6739C95.76 63.9314 96.2902 61.1757 96.2902 61.1757C96.2902 61.1757 96.3648 58.2676 94.7773 56.9335C93.1897 55.5994 92.0854 54.502 92.6983 55.7988C92.9662 56.3933 93.2661 56.9728 93.5967 57.5349C93.5967 57.5349 89.8005 58.4362 91.1481 59.8432C92.4956 61.2503 92.8621 61.2519 92.8621 61.2519C92.8621 61.2519 92.4129 64.7257 92.3302 65.3725C92.2475 66.0193 91.5194 70.9472 91.5194 70.9472C91.5194 70.9472 91.4789 73.2912 91.8875 73.6543C91.8875 73.6543 92.1551 75.1635 93.8464 75.1133C93.8464 75.1133 97.0702 75.0322 97.9686 74.6691C98.867 74.306 101.968 72.3656 102.295 72.4872C102.319 72.4968 102.34 72.5111 102.358 72.5293C102.376 72.5443 102.392 72.5606 102.407 72.578C102.083 73.2961 101.314 75.7341 101.642 76.932C101.642 76.932 101.356 80.3248 103.07 81.4158C103.07 81.4158 105.559 85.6175 104.62 87.8788C104.546 88.062 104.479 88.2306 104.418 88.3943C102.992 87.2126 100.818 86.1249 97.4967 85.5235C97.1578 85.4619 96.8205 85.3873 96.4864 85.3062C95.5427 85.0777 92.9464 84.8686 91.7108 88.9714C91.4226 89.9251 91.0559 90.8533 90.6145 91.7466C90.1281 92.7305 89.5881 94.1408 89.5767 95.5397C89.5491 97.5012 90.5627 99.4448 94.2405 100.158C94.281 101.617 94.4481 103.355 94.9475 104.605C95.9675 107.15 97.6005 111.27 97.6005 111.27C97.6005 111.27 99.5594 115.472 99.6827 117.167C99.7621 118.278 99.8789 119.733 99.7978 120.734C99.7978 120.795 99.7881 120.854 99.7816 120.912C99.6135 121.093 99.4301 121.26 99.2335 121.41C98.9481 121.572 98.0091 122.582 98.0091 122.823C98.0111 123.055 98.0317 123.286 98.0708 123.514C97.6264 123.901 97.3832 124.324 97.3832 124.746C97.3832 126.937 103.605 128.714 111.28 128.714C118.956 128.714 125.176 126.931 125.176 124.746C125.176 122.745 119.987 121.092 113.244 120.82C114.65 120.259 115.899 119.67 116.416 119.199C116.527 119.112 116.612 118.996 116.661 118.865L115.356 115.835C115.356 115.835 115.253 115.858 115.103 115.901L115.012 115.765C114.431 114.882 113.314 113.121 113.314 112.643C113.314 112.466 113.019 111.337 112.591 109.789V104.82C116.849 105.469 122.337 104.587 122.337 104.587L122.361 104.574H122.468V104.515C123.206 104.107 126.897 101.946 127.991 99.0801C128.316 98.2436 127.912 97.0457 127.109 95.7651C127.67 94.3726 129.055 90.7756 128.917 89.341C128.917 89.2648 128.908 89.1789 128.908 89.0946C128.921 88.948 128.926 88.8008 128.924 88.6537C129.086 86.5463 130.383 82.6964 130.383 82.6964C130.383 82.6964 130.375 82.6299 130.359 82.5327ZM102.791 73.1697C103.086 73.6884 103.403 74.3514 103.528 74.6205C103.528 74.6205 103.096 73.8262 102.799 73.1697H102.791ZM103.099 118.574L103.069 118.586V118.424C103.051 118.001 103.061 117.577 103.099 117.156C103.104 116.929 103.056 116.704 102.96 116.498C102.46 115.243 102.126 113.928 101.966 112.586C101.804 111.173 101.669 109.631 101.753 109.239C101.88 108.638 101.984 104.083 101.826 101.837L104.337 102.402L107.256 108.351C107.256 108.351 109.133 111.256 109.716 113.548V115.843C109.545 116.527 109.248 117.172 108.838 117.746C108.451 118.276 108.073 118.813 107.723 119.367C107.616 119.539 107.497 119.716 107.379 119.881C107.34 119.881 105.422 119.993 105.096 120.353C104.895 120.575 104.544 120.925 104.486 121.277L104.403 121.29C104.027 120.17 103.108 118.574 103.108 118.574H103.099Z" fill="url(#paint0_linear)"/>
<path opacity="0.1" d="M115.448 116.492L114.799 118.599L112.043 120.99L107.989 122.154C107.989 122.154 106.083 121.111 106.732 120.909C106.912 120.852 107.126 120.646 107.343 120.377C107.116 121.204 108.921 120.139 108.921 120.139C108.921 120.139 113.583 116.816 114.07 116.451C114.389 116.24 114.739 116.079 115.107 115.976C115.31 116.292 115.448 116.492 115.448 116.492Z" fill="black"/>
<path d="M115.448 116.491L114.8 118.599L112.043 120.99L107.989 122.154C107.989 122.154 106.083 121.111 106.732 120.909C106.912 120.852 107.126 120.646 107.343 120.377C107.539 120.127 107.72 119.867 107.885 119.596C108.232 119.038 108.608 118.5 108.992 117.975C109.553 117.177 109.905 116.251 110.016 115.282C110.3 113.053 107.421 108.555 107.421 108.555L102.191 97.8157L109.489 98.7072C109.489 98.7072 113.421 112.202 113.421 112.851C113.421 113.337 114.53 115.096 115.108 115.982C115.31 116.292 115.448 116.491 115.448 116.491Z" fill="#FDC2CC"/>
<path d="M111.401 128.968C119.024 128.968 125.204 127.187 125.204 124.989C125.204 122.791 119.024 121.009 111.401 121.009C103.777 121.009 97.5973 122.791 97.5973 124.989C97.5973 127.187 103.777 128.968 111.401 128.968Z" fill="#5F5D7E"/>
<path d="M116.745 119.085C116.696 119.217 116.612 119.333 116.502 119.421C115.5 120.34 111.752 121.706 109.437 122.449C108.83 122.661 108.211 122.837 107.583 122.976C107.016 123.016 105.84 122.652 105.029 122.154C104.218 121.656 104.948 120.949 105.276 120.585C105.603 120.22 107.546 120.111 107.546 120.111C106.613 121.663 108.923 120.301 108.923 120.301C108.923 120.301 113.585 116.978 114.071 116.613C114.558 116.249 115.45 116.046 115.45 116.046L116.745 119.085Z" fill="#E8368F"/>
<path opacity="0.3" d="M116.745 119.085C116.696 119.217 116.612 119.333 116.502 119.421C115.5 120.34 111.752 121.706 109.437 122.449C108.83 122.661 108.211 122.837 107.583 122.976C107.016 123.016 105.84 122.652 105.029 122.154C104.218 121.656 104.948 120.949 105.276 120.585C105.603 120.22 107.546 120.111 107.546 120.111C106.613 121.663 108.923 120.301 108.923 120.301C108.923 120.301 113.585 116.978 114.071 116.613C114.558 116.249 115.45 116.046 115.45 116.046L116.745 119.085Z" fill="black"/>
<path opacity="0.1" d="M116.502 119.424C115.5 120.343 111.752 121.709 109.437 122.452C111.535 120.675 115.054 119.746 116.502 119.424Z" fill="black"/>
<path opacity="0.1" d="M111.401 124.502C112.926 124.502 114.162 124.146 114.162 123.707C114.162 123.267 112.926 122.911 111.401 122.911C109.875 122.911 108.639 123.267 108.639 123.707C108.639 124.146 109.875 124.502 111.401 124.502Z" fill="black"/>
<path d="M112.703 102.714H109.865V123.707H112.703V102.714Z" fill="#5F5D7E"/>
<path opacity="0.1" d="M112.703 103.755V106.187C112.135 106.012 110.839 105.274 109.865 104.694V102.713H110.457L112.703 103.755Z" fill="black"/>
<path d="M106.017 93.5751C106.017 93.5751 115.386 91.1646 117.718 89.3604C120.05 87.5562 129.208 96.0455 127.998 99.2487C126.788 102.452 122.384 104.772 122.384 104.772C122.384 104.772 110.204 106.752 108.13 102.62C106.056 98.4884 106.017 93.5751 106.017 93.5751Z" fill="#474157"/>
<path opacity="0.1" d="M106.017 93.5751C106.017 93.5751 115.386 91.1646 117.718 89.3604C120.05 87.5562 129.208 96.0455 127.998 99.2487C126.788 102.452 122.384 104.772 122.384 104.772C122.384 104.772 110.204 106.752 108.13 102.62C106.056 98.4884 106.017 93.5751 106.017 93.5751Z" fill="black"/>
<path d="M105.206 92.6027C105.206 92.6027 114.576 90.1922 116.908 88.388C119.239 86.5838 128.397 95.0731 127.187 98.2763C125.977 101.479 121.573 103.799 121.573 103.799C121.573 103.799 109.393 105.78 107.319 101.648C105.245 97.516 105.206 92.6027 105.206 92.6027Z" fill="#474157"/>
<path d="M96.5157 70.4983L95.5022 70.1303C95.5022 70.1303 96.3941 68.874 96.0097 67.334C96.0097 67.334 95.5832 65.4763 95.7859 64.7242C95.9886 63.972 96.5157 61.2147 96.5157 61.2147C96.5157 61.2147 96.5903 58.2968 95.0124 56.9595C93.4346 55.6222 92.34 54.528 92.9481 55.8248C93.2137 56.4213 93.5114 57.0031 93.84 57.5674C93.84 57.5674 90.0697 58.4703 91.4076 59.8838C92.7454 61.2974 93.1103 61.2957 93.1103 61.2957C93.1103 61.2957 92.6643 64.7809 92.5832 65.4293C92.5022 66.0777 91.7724 71.0219 91.7724 71.0219C91.7724 71.0219 91.7319 73.3723 92.1373 73.7371C92.2273 74.1759 92.475 74.5666 92.8335 74.8354C93.192 75.1042 93.6366 75.2325 94.0832 75.196C94.3719 75.1911 97.813 71.3898 96.5157 70.4983Z" fill="#FDC2CC"/>
<path d="M121.002 63.0417V65.3111L118.651 66.0778L114.645 69.0249L113.583 69.8062L108.84 67.9015L105.84 64.7405C105.84 64.7405 105.986 64.6611 106.239 64.5298L106.401 64.4439C106.909 64.1894 107.708 63.7954 108.592 63.4437C109.476 63.0919 109.579 61.03 109.529 59.3311V59.169C109.489 57.9776 109.367 57.0033 109.367 57.0033C109.367 57.0033 109.862 56.9093 110.582 56.8023C112.578 56.5057 116.303 56.1053 115.975 57.3276C115.879 57.7431 115.879 58.1748 115.975 58.5903C115.985 58.6357 115.995 58.6827 116.006 58.7281C116.343 60.2016 117.388 61.7448 117.388 61.7448L120.631 62.912L120.722 62.9444L121.002 63.0417Z" fill="#FDC2CC"/>
<path d="M121.002 63.7304V63.0414C121.257 62.9976 121.518 62.9976 121.773 63.0414C122.056 63.1225 122.595 63.9735 122.838 64.0546C123.081 64.1356 124.57 69.6876 124.408 70.1739C124.245 70.6602 122.713 81.6394 122.713 81.6394L119.624 85.0436L119.016 75.6822L121.002 70.1302V63.7304Z" fill="#FDC2CC"/>
<path d="M104.989 89.2212C104.989 89.2212 102.165 89.8291 102.524 90.7206C102.882 91.6122 104.462 91.6527 104.462 91.6527L104.989 89.2212Z" fill="#FDC2CC"/>
<path d="M108.921 71.2196L106.772 75.8476L104.218 77.7118L103.772 74.8312C103.772 74.8312 102.91 72.9265 102.538 72.6039C102.52 72.5857 102.499 72.5713 102.475 72.5618C102.151 72.4402 99.0697 74.3854 98.1778 74.7502C97.286 75.1149 94.0833 75.1959 94.0833 75.1959L95.5022 70.1302C95.5022 70.1302 98.34 69.0766 98.7049 68.5903C99.0697 68.104 100.935 66.2398 102.07 65.3482C103.205 64.4567 105.276 64.7809 105.276 64.7809L105.308 64.7938L105.84 65.024L107.381 68.7929L108.921 71.2196Z" fill="#FDC2CC"/>
<path d="M103.286 117.386C103.248 117.809 103.237 118.233 103.255 118.657C103.266 119.109 103.286 119.494 103.286 119.494L102.353 121.439C102.353 121.439 99.1508 122.493 99.6778 122.047C99.861 121.893 99.9551 121.492 100.002 120.962C100.082 119.961 99.9664 118.5 99.887 117.386C99.7653 115.684 97.8194 111.47 97.8194 111.47C97.8194 111.47 96.1978 107.336 95.1843 104.783C94.1707 102.23 94.5356 97.6098 94.5356 97.6098C94.5356 97.6098 94.6978 94.1246 95.4275 93.071C96.1572 92.0173 98.9951 91.6526 98.9951 91.6526L100.326 96.0666C100.326 96.0666 101.421 100.2 101.826 100.808C102.232 101.416 102.11 108.67 101.948 109.44C101.865 109.834 102.005 111.385 102.16 112.799C102.319 114.143 102.651 115.462 103.146 116.722C103.243 116.93 103.291 117.157 103.286 117.386Z" fill="#FDC2CC"/>
<path opacity="0.1" d="M103.286 119.494L102.354 121.439C102.354 121.439 99.1508 122.493 99.6778 122.047C99.8611 121.893 99.9551 121.492 100.002 120.962C100.117 120.847 100.241 120.721 100.367 120.591C101.182 119.746 102.169 119.087 103.262 118.657C103.267 119.109 103.286 119.494 103.286 119.494Z" fill="black"/>
<path d="M104.749 122.389C104.75 122.396 104.75 122.404 104.749 122.411C104.587 123.181 101.911 124.235 101.911 124.235C101.911 124.235 100.208 124.519 99.2352 124.762C99.1607 124.782 99.0834 124.789 99.0065 124.783C98.2557 124.726 98.2217 123.282 98.2217 123.06C98.2217 122.838 99.1541 121.804 99.4379 121.641C99.7588 121.375 100.06 121.087 100.34 120.777C101.172 119.916 102.179 119.243 103.294 118.805C103.294 118.805 104.878 121.59 104.749 122.389Z" fill="#E8368F"/>
<path opacity="0.3" d="M104.749 122.389C104.75 122.396 104.75 122.404 104.749 122.412C104.587 123.182 101.911 124.235 101.911 124.235C101.911 124.235 100.208 124.519 99.2352 124.762C99.1607 124.782 99.0834 124.789 99.0065 124.783C98.2557 124.726 98.2217 123.282 98.2217 123.06C98.2217 122.838 99.1541 121.804 99.4379 121.642C99.7639 121.372 100.07 121.079 100.352 120.765C101.167 119.916 102.155 119.253 103.249 118.819L103.294 118.802C103.294 118.802 104.878 121.59 104.749 122.389Z" fill="black"/>
<path opacity="0.1" d="M104.749 122.389C104.75 122.396 104.75 122.404 104.749 122.412C104.586 123.182 101.911 124.235 101.911 124.235C101.911 124.235 100.208 124.519 99.2351 124.762C99.1607 124.782 99.0833 124.789 99.0065 124.783C99.8886 124.179 102.028 122.728 102.316 122.695C102.605 122.663 104.027 122.254 104.749 122.389Z" fill="black"/>
<path opacity="0.1" d="M116.012 58.728C115.01 59.5531 114.089 59.4347 112.69 59.4347C111.678 59.4347 110.363 59.7897 109.534 59.3342C109.5 58.0682 109.372 57.0032 109.372 57.0032C109.372 57.0032 116.426 55.6659 115.98 57.3274C115.878 57.7901 115.889 58.2705 116.012 58.728Z" fill="black"/>
<path d="M118.124 54.092C118.124 55.629 117.513 57.103 116.426 58.1898C115.339 59.2766 113.864 59.8872 112.326 59.8872C112.177 59.8872 112.028 59.8872 111.882 59.871C110.758 59.7843 109.683 59.3717 108.79 58.6839C107.897 57.996 107.224 57.0627 106.853 55.9982C106.482 54.9337 106.43 53.7843 106.703 52.6907C106.976 51.597 107.562 50.6067 108.389 49.8409C109.217 49.075 110.249 48.567 111.361 48.379C112.473 48.191 113.615 48.3312 114.649 48.7824C115.682 49.2335 116.561 49.9761 117.179 50.9192C117.796 51.8623 118.125 52.9649 118.125 54.092H118.124Z" fill="#FDC2CC"/>
<path opacity="0.1" d="M107.38 68.7963L108.921 71.2278L106.772 75.8558L104.218 77.72L103.772 74.8313C103.772 74.8313 102.91 72.9266 102.538 72.604C102.645 72.3431 102.718 72.2231 102.718 72.3187C102.718 72.724 103.716 74.5476 103.716 74.5476C106.797 73.494 105.84 69.4009 105.84 69.4009C105.84 69.4009 105.457 65.7536 105.308 64.7939L105.84 65.0241L107.38 68.7963Z" fill="black"/>
<path opacity="0.1" d="M121.002 63.0416V65.311L118.651 66.0778L114.645 69.0248L113.583 69.8061L108.84 67.9014L105.84 64.7404C105.84 64.7404 105.986 64.661 106.239 64.5297L106.401 64.4438C108.488 65.3921 110.747 65.7406 112.361 65.8654C113.103 65.9283 113.848 65.9451 114.592 65.9157C120.701 64.9431 120.882 63.4679 120.73 62.9443L121.002 63.0416Z" fill="black"/>
<path d="M122.745 99.7949C121.216 100.544 119.646 101.207 118.043 101.781C115.245 102.794 109.083 101.456 108.313 101.254C107.543 101.051 101.624 98.7007 99.3535 97.8091C97.0832 96.9176 96.5157 97.647 95.9886 97.566C95.4616 97.4849 95.0967 96.4718 95.0157 96.1881C94.9346 95.9044 96.4751 93.4324 97.3265 92.1761C98.1778 90.9198 100.732 91.1629 101.097 91.0819C101.462 91.0008 104.016 91.0819 104.016 91.0819C104.016 91.0819 103.853 90.2714 104.786 88.002C105.718 85.7325 103.245 81.5179 103.245 81.5179C101.543 80.4237 101.826 77.0195 101.826 77.0195C101.421 75.5201 102.718 72.0754 102.718 72.4807C102.718 72.8859 103.716 74.7096 103.716 74.7096C106.797 73.6559 105.84 69.5628 105.84 69.5628C105.84 69.5628 105.394 65.3076 105.276 64.7808C105.157 64.254 105.84 64.335 105.84 64.335C105.972 64.4031 106.105 64.468 106.239 64.5296C108.373 65.5346 110.708 65.9009 112.365 66.0274C113.107 66.0903 113.853 66.107 114.597 66.0776C122.003 64.8829 120.691 62.9782 120.642 62.9102L121.002 63.0382C123.678 64.9834 122.867 71.427 122.867 71.427L121.865 76.2366L121.121 79.819C121.121 79.819 123.756 95.7861 123.999 96.5966C124.242 97.4071 122.745 99.7949 122.745 99.7949Z" fill="#E8368F"/>
<path opacity="0.1" d="M103.002 92.5005C102.84 92.6221 101.016 96.3909 102.354 97.4446C103.691 98.4983 103.002 92.5005 103.002 92.5005Z" fill="black"/>
<path opacity="0.1" d="M104.299 93.0305C104.34 93.1521 108.11 99.1499 110.178 99.6362L104.299 93.0305Z" fill="black"/>
<path opacity="0.1" d="M113.382 45.5686L112.779 45.6967C112.945 45.6354 113.115 45.585 113.288 45.5459L113.382 45.5686Z" fill="black"/>
<path opacity="0.1" d="M122.467 71.4271L121.331 76.2334C120.752 75.9694 120.22 75.6129 119.755 75.1781C119.394 74.8345 119.069 74.4406 118.604 74.2152C118.005 73.9251 117.284 73.964 116.604 73.9397C115.756 73.908 114.915 73.7641 114.104 73.5117C113.868 73.4526 113.647 73.3456 113.455 73.1972C113.069 72.8568 113.095 72.3073 113.131 71.8275C113.201 70.8948 113.209 69.9585 113.155 69.0247C113.145 68.8497 113.132 68.6746 113.118 68.4995C113.053 67.7166 112.842 66.8088 112.041 66.4732C111.629 66.3111 111.138 66.3241 110.744 66.128C110.687 66.0993 110.633 66.0657 110.582 66.0275C109.998 65.619 109.944 64.8003 109.967 64.1114C110.002 63.1647 110.035 62.2175 110.066 61.2698C110.095 60.8023 110.085 60.3332 110.035 59.8676C109.996 59.5583 109.911 59.2567 109.782 58.9728C109.43 58.2206 108.697 57.5933 108.566 56.799C108.559 56.762 108.554 56.7247 108.551 56.6871C108.483 55.9771 108.931 55.3157 109.088 54.6171C109.403 53.2117 108.345 51.6717 106.79 51.2681C106.304 51.1416 105.782 51.1173 105.297 50.973C105.219 50.9499 105.143 50.9228 105.068 50.892C106.242 49.3261 108.255 48.2983 110.539 48.2983C114.161 48.2983 117.097 50.892 117.097 54.0935C117.097 55.909 116.152 57.5284 114.675 58.5918C114.684 58.6372 114.696 58.6842 114.709 58.7296C115.09 60.2031 116.272 61.7463 116.272 61.7463L119.943 62.9135L120.352 63.0432C123.384 64.9868 122.467 71.4271 122.467 71.4271Z" fill="black"/>
<path opacity="0.1" d="M124.46 76.0827C124.424 76.0827 124.39 76.0746 124.356 76.0681C124.391 76.0644 124.427 76.0694 124.46 76.0827Z" fill="black"/>
<path d="M111.921 45.4079C110.906 45.1722 109.869 45.051 108.827 45.0464C108.488 45.0464 108.125 45.0642 107.854 45.2506C107.496 45.5019 107.45 45.9558 107.343 46.3481C107.15 47.0031 106.741 47.5741 106.184 47.9691C105.799 48.2495 105.347 48.4554 104.979 48.7504C104.611 49.0454 104.33 49.4831 104.423 49.9143C104.515 50.3455 105 50.6778 105.486 50.8156C105.973 50.9534 106.49 50.9777 106.98 51.1106C108.535 51.5143 109.591 53.0559 109.276 54.458C109.114 55.1567 108.671 55.8181 108.739 56.5281C108.819 57.3759 109.602 58.0292 109.97 58.8153C110.306 59.5318 110.283 60.3359 110.257 61.1107L110.158 63.954C110.132 64.7029 110.197 65.6042 110.937 65.9705C111.332 66.1651 111.825 66.144 112.234 66.3158C113.035 66.6497 113.246 67.5591 113.311 68.3405C113.403 69.4477 113.408 70.5605 113.324 71.6684C113.286 72.1547 113.261 72.6978 113.648 73.0382C113.84 73.1872 114.061 73.2943 114.297 73.3527C115.108 73.605 115.949 73.7489 116.797 73.7806C117.478 73.8066 118.198 73.7676 118.797 74.0562C119.262 74.2815 119.586 74.677 119.948 75.0191C120.985 75.9674 122.307 76.546 123.707 76.6644C124.007 76.6904 124.348 76.6839 124.557 76.491C124.766 76.2981 124.643 75.8815 124.344 75.9058C124.598 75.9483 124.858 75.9224 125.098 75.8306C125.338 75.7388 125.549 75.5846 125.71 75.3838C125.846 75.1899 125.919 74.9587 125.919 74.7216C125.919 74.4846 125.846 74.2533 125.71 74.0594C125.371 73.5731 124.651 73.2489 124.612 72.6718C124.591 72.3476 124.806 72.0542 124.975 71.7657C125.382 71.0473 125.544 70.2163 125.438 69.3978C125.331 68.5793 124.962 67.8174 124.385 67.2268C123.624 66.4406 122.484 65.8441 122.218 64.8358C122.042 64.1615 122.309 63.4531 122.207 62.7674C122.045 61.6327 120.921 60.8222 120.303 59.8107C119.685 58.7991 119.577 57.5753 119.734 56.4243C119.891 55.2734 120.29 54.1549 120.615 53.0364C120.856 52.2016 121.056 51.3149 120.786 50.4865C120.593 49.8981 120.178 49.3875 119.747 48.906C118.714 47.7535 117.525 46.6739 116.056 45.9882C114.587 45.3025 112.797 45.0367 111.237 45.544" fill="#474157"/>
<path opacity="0.1" d="M111.921 45.4079C110.906 45.1722 109.869 45.051 108.827 45.0464C108.488 45.0464 108.125 45.0642 107.854 45.2506C107.496 45.5019 107.45 45.9558 107.343 46.3481C107.15 47.0031 106.741 47.5741 106.184 47.9691C105.799 48.2495 105.347 48.4554 104.979 48.7504C104.611 49.0454 104.33 49.4831 104.423 49.9143C104.515 50.3455 105 50.6778 105.486 50.8156C105.973 50.9534 106.49 50.9777 106.98 51.1106C108.535 51.5143 109.591 53.0559 109.276 54.458C109.114 55.1567 108.671 55.8181 108.739 56.5281C108.819 57.3759 109.602 58.0292 109.97 58.8153C110.306 59.5318 110.283 60.3359 110.257 61.1107L110.158 63.954C110.132 64.7029 110.197 65.6042 110.937 65.9705C111.332 66.1651 111.825 66.144 112.234 66.3158C113.035 66.6497 113.246 67.5591 113.311 68.3405C113.403 69.4477 113.408 70.5605 113.324 71.6684C113.286 72.1547 113.261 72.6978 113.648 73.0382C113.84 73.1872 114.061 73.2943 114.297 73.3527C115.108 73.605 115.949 73.7489 116.797 73.7806C117.478 73.8066 118.198 73.7676 118.797 74.0562C119.262 74.2815 119.586 74.677 119.948 75.0191C120.985 75.9674 122.307 76.546 123.707 76.6644C124.007 76.6904 124.348 76.6839 124.557 76.491C124.766 76.2981 124.643 75.8815 124.344 75.9058C124.598 75.9483 124.858 75.9224 125.098 75.8306C125.338 75.7388 125.549 75.5846 125.71 75.3838C125.846 75.1899 125.919 74.9587 125.919 74.7216C125.919 74.4846 125.846 74.2533 125.71 74.0594C125.371 73.5731 124.651 73.2489 124.612 72.6718C124.591 72.3476 124.806 72.0542 124.975 71.7657C125.382 71.0473 125.544 70.2163 125.438 69.3978C125.331 68.5793 124.962 67.8174 124.385 67.2268C123.624 66.4406 122.484 65.8441 122.218 64.8358C122.042 64.1615 122.309 63.4531 122.207 62.7674C122.045 61.6327 120.921 60.8222 120.303 59.8107C119.685 58.7991 119.577 57.5753 119.734 56.4243C119.891 55.2734 120.29 54.1549 120.615 53.0364C120.856 52.2016 121.056 51.3149 120.786 50.4865C120.593 49.8981 120.178 49.3875 119.747 48.906C118.714 47.7535 117.525 46.6739 116.056 45.9882C114.587 45.3025 112.797 45.0367 111.237 45.544" fill="black"/>
<path opacity="0.1" d="M103.245 81.5212C103.245 81.5212 104.624 82.048 106.083 80.5891C107.543 79.1302 103.245 81.5212 103.245 81.5212Z" fill="black"/>
<g opacity="0.1">
<path opacity="0.1" d="M112.531 45.3838C112.798 45.3307 113.069 45.2965 113.342 45.2817C112.963 45.2586 112.583 45.2705 112.207 45.3174L112.531 45.3838Z" fill="black"/>
<path opacity="0.1" d="M120.662 75.0194C120.298 74.6773 119.976 74.2818 119.509 74.0565C118.912 73.7679 118.19 73.8068 117.509 73.7809C116.66 73.7498 115.819 73.6059 115.009 73.353C114.773 73.2946 114.552 73.1875 114.36 73.0385C113.974 72.6981 114.002 72.1502 114.036 71.6687C114.12 70.5608 114.115 69.448 114.023 68.3408C113.956 67.5594 113.747 66.65 112.944 66.3161C112.534 66.1443 112.043 66.1653 111.647 65.9708C110.908 65.6045 110.836 64.7032 110.867 63.9543C110.901 63.0065 110.934 62.0593 110.966 61.1126C110.994 60.3362 111.015 59.5321 110.679 58.8156C110.311 58.0294 109.528 57.3778 109.448 56.5284C109.382 55.82 109.829 55.157 109.986 54.4583C110.301 53.0529 109.244 51.5146 107.689 51.1109C107.202 50.9845 106.68 50.9585 106.195 50.8159C105.71 50.6732 105.24 50.3652 105.139 49.9243C105.039 49.4834 105.326 49.0555 105.694 48.7588C106.062 48.4622 106.515 48.2579 106.901 47.9775C107.458 47.5828 107.866 47.0117 108.058 46.3565C108.167 45.9642 108.221 45.5119 108.569 45.259C108.769 45.1351 108.999 45.0679 109.234 45.0645C109.09 45.0645 108.945 45.0564 108.803 45.0564C108.464 45.0564 108.101 45.0742 107.83 45.259C107.471 45.5119 107.426 45.9642 107.319 46.3565C107.125 47.0115 106.717 47.5825 106.159 47.9775C105.775 48.2579 105.323 48.4638 104.955 48.7588C104.586 49.0538 104.306 49.4915 104.398 49.9243C104.491 50.3571 104.971 50.6716 105.456 50.8159C105.941 50.9602 106.459 50.978 106.949 51.1109C108.504 51.5146 109.56 53.0561 109.245 54.4583C109.083 55.157 108.641 55.82 108.709 56.5284C108.788 57.3778 109.571 58.0294 109.939 58.8156C110.275 59.5321 110.254 60.3362 110.226 61.1126C110.193 62.0593 110.16 63.0065 110.128 63.9543C110.102 64.7032 110.166 65.6045 110.906 65.9708C111.302 66.1653 111.795 66.1443 112.203 66.3161C113.004 66.65 113.215 67.5594 113.28 68.3408C113.373 69.448 113.377 70.5608 113.293 71.6687C113.256 72.155 113.23 72.6981 113.617 73.0385C113.809 73.1875 114.03 73.2946 114.266 73.353C115.077 73.6061 115.918 73.75 116.766 73.7809C117.448 73.8068 118.168 73.7679 118.766 74.0565C119.231 74.2818 119.556 74.6773 119.919 75.0194C120.955 75.968 122.276 76.5466 123.676 76.6647C123.857 76.6862 124.041 76.6791 124.219 76.6436C122.892 76.4904 121.647 75.922 120.662 75.0194Z" fill="black"/>
</g>
<path opacity="0.1" d="M95.5021 70.1304C95.5021 70.1304 94.2048 71.3202 94.3946 71.8065C94.5843 72.2928 95.5021 70.1304 95.5021 70.1304Z" fill="black"/>
<path d="M96.7054 85.4245C95.7697 85.196 93.1897 84.9852 91.9621 89.101C91.6763 90.057 91.3124 90.9879 90.874 91.8843C89.6967 94.3012 88.1757 99.2713 94.8649 100.365L110.919 104.013C110.919 104.013 119.514 105.066 120.081 104.661C120.649 104.256 120.568 103.364 120.568 103.364C120.568 103.364 111.081 103.364 109.216 100.447C107.351 97.5287 107.27 93.5572 107.27 93.5572C107.27 93.5572 107.504 87.4249 97.7027 85.6434C97.3784 85.5818 97.0378 85.5056 96.7054 85.4245Z" fill="#474157"/>
<path opacity="0.1" d="M96.7054 85.4521C95.7697 85.2235 93.1897 85.0128 91.9621 89.1302C91.6763 90.0862 91.3124 91.0171 90.874 91.9135C89.6967 94.3288 88.1757 99.2989 94.8649 100.393L110.919 104.04C110.919 104.04 119.514 105.094 120.081 104.689C120.649 104.284 120.568 103.392 120.568 103.392C120.568 103.392 111.081 103.392 109.216 100.474C107.351 97.5563 107.27 93.5848 107.27 93.5848C107.27 93.5848 107.504 87.4524 97.7027 85.6709C97.3784 85.6093 97.0378 85.5299 96.7054 85.4521Z" fill="black"/>
<path d="M130.359 81.231C130.266 80.6377 129.961 80.0984 129.5 79.7132C129.039 79.328 128.454 79.1231 127.854 79.1366C125.544 79.1788 118.437 79.4868 115.135 81.6427C115.135 81.6427 112.622 83.2637 111.892 83.2637C111.162 83.2637 101.27 91.693 115.946 99.2308C115.946 99.2308 123.811 101.468 126.892 96.2157C126.892 96.2157 129.081 90.5745 128.919 88.6212C128.757 86.6679 130.378 81.3996 130.378 81.3996C130.378 81.3996 130.375 81.3363 130.359 81.231Z" fill="#474157"/>
<path opacity="0.1" d="M130.359 82.6511C130.174 81.5164 129.094 80.6961 127.854 80.7172C125.544 80.7561 118.437 81.0414 115.135 83.0304C115.135 83.0304 112.622 84.5266 111.892 84.5266C111.162 84.5266 101.27 92.3075 115.946 99.2665C115.946 99.2665 123.811 101.332 126.892 96.4832C126.892 96.4832 129.081 91.2749 128.919 89.4723C128.757 87.6698 130.378 82.8067 130.378 82.8067C130.378 82.8067 130.375 82.7483 130.359 82.6511Z" fill="black"/>
<path d="M122.514 99.2292H119.919V104.752H122.514V99.2292Z" fill="#5F5D7E"/>
<path opacity="0.1" d="M27.6065 76.7717C31.6402 76.7717 34.9102 76.5619 34.9102 76.3032C34.9102 76.0445 31.6402 75.8347 27.6065 75.8347C23.5727 75.8347 20.3027 76.0445 20.3027 76.3032C20.3027 76.5619 23.5727 76.7717 27.6065 76.7717Z" fill="black"/>
<path d="M33.7362 58.2353C33.5806 58.4484 33.4562 58.6825 33.3665 58.9307C33.3438 58.9923 33.3211 59.0604 33.2984 59.1268C33.2575 59.1074 33.2145 59.0928 33.1703 59.0831C32.9812 59.0357 32.7858 59.0188 32.5914 59.0328C32.5914 58.9582 32.6011 58.8707 32.6027 58.7961C32.627 57.9419 32.5265 56.7504 31.7108 57.2545C30.9292 57.7408 31.487 58.5514 31.9914 59.0717L32.1211 59.1981C31.6605 59.5223 31.573 60.2891 31.4968 61.085C31.4205 61.8809 30.7443 62.753 30.2951 63.2475C30.2497 63.2977 30.2092 63.3431 30.1687 63.3852C29.9873 63.24 29.7771 63.135 29.552 63.0772C29.327 63.0193 29.0922 63.0099 28.8632 63.0497C28.8454 62.98 28.8243 62.907 28.8032 62.8292C28.44 61.5194 27.6859 59.2484 26.7243 58.7507L26.8508 58.5886C27.2595 58.0537 27.72 57.261 27.0405 57.0568C26.3611 56.8525 26.2995 57.7457 26.3368 58.4136C26.3368 58.4979 26.3497 58.5757 26.3562 58.6502C26.2205 58.6568 26.0875 58.691 25.9654 58.7506C25.8432 58.8102 25.7346 58.8941 25.6459 58.9971L25.5405 58.8739C24.9892 58.2255 23.9789 57.1929 23.6724 57.9727C23.387 58.6989 24.2773 59.6407 24.9032 60.187L24.9422 60.221C24.5222 61.9279 26.3514 63.322 27.3438 63.925L27.4719 64.0029C26.1097 65.6077 25.2681 68.6147 25.2681 68.6147L29.0822 69.2955C29.0822 69.2955 31.6119 67.1152 31.2876 65.0662H31.3135C33.8416 64.5605 34.4157 61.8663 34.0216 60.2664L34.067 60.2486C34.5273 60.0597 34.9307 59.7548 35.2378 59.3635C35.9449 58.3795 34.4595 57.2708 33.7362 58.2353Z" fill="#E8368F"/>
<path opacity="0.1" d="M33.7362 58.2353C33.5806 58.4484 33.4562 58.6825 33.3665 58.9307C33.3438 58.9923 33.3211 59.0604 33.2984 59.1268C33.2575 59.1074 33.2145 59.0928 33.1703 59.0831C32.9812 59.0357 32.7858 59.0188 32.5914 59.0328C32.5914 58.9582 32.6011 58.8707 32.6027 58.7961C32.627 57.9419 32.5265 56.7504 31.7108 57.2545C30.9292 57.7408 31.487 58.5514 31.9914 59.0717L32.1211 59.1981C31.6605 59.5223 31.573 60.2891 31.4968 61.085C31.4205 61.8809 30.7443 62.753 30.2951 63.2475C30.2497 63.2977 30.2092 63.3431 30.1687 63.3852C29.9873 63.24 29.7771 63.135 29.552 63.0772C29.327 63.0193 29.0922 63.0099 28.8632 63.0497C28.8454 62.98 28.8243 62.907 28.8032 62.8292C28.44 61.5194 27.6859 59.2484 26.7243 58.7507L26.8508 58.5886C27.2595 58.0537 27.72 57.261 27.0405 57.0568C26.3611 56.8525 26.2995 57.7457 26.3368 58.4136C26.3368 58.4979 26.3497 58.5757 26.3562 58.6502C26.2205 58.6568 26.0875 58.691 25.9654 58.7506C25.8432 58.8102 25.7346 58.8941 25.6459 58.9971L25.5405 58.8739C24.9892 58.2255 23.9789 57.1929 23.6724 57.9727C23.387 58.6989 24.2773 59.6407 24.9032 60.187L24.9422 60.221C24.5222 61.9279 26.3514 63.322 27.3438 63.925L27.4719 64.0029C26.1097 65.6077 25.2681 68.6147 25.2681 68.6147L29.0822 69.2955C29.0822 69.2955 31.6119 67.1152 31.2876 65.0662H31.3135C33.8416 64.5605 34.4157 61.8663 34.0216 60.2664L34.067 60.2486C34.5273 60.0597 34.9307 59.7548 35.2378 59.3635C35.9449 58.3795 34.4595 57.2708 33.7362 58.2353Z" fill="black"/>
<path d="M26.1438 59.3342L25.7027 60.6391C25.7027 60.6391 25.4546 60.4641 25.1416 60.1885C24.5157 59.6422 23.6254 58.7004 23.9108 57.9742C24.2173 57.1945 25.2276 58.2238 25.7789 58.8755C25.9962 59.1332 26.1438 59.3342 26.1438 59.3342Z" fill="#E8368F"/>
<path d="M27.0843 58.5903C26.9486 58.7681 26.8036 58.9385 26.6497 59.1009C26.6117 58.8738 26.5852 58.645 26.5703 58.4152C26.533 57.7473 26.6043 56.8606 27.2741 57.0584C27.9438 57.2562 27.4865 58.0553 27.0843 58.5903Z" fill="#E8368F"/>
<path d="M32.8378 58.7961C32.8248 59.2256 32.7827 59.5677 32.7827 59.5677C32.5863 59.4151 32.4005 59.2493 32.2265 59.0716C31.7221 58.548 31.1643 57.7408 31.9459 57.2545C32.76 56.7503 32.8605 57.9418 32.8378 58.7961Z" fill="#E8368F"/>
<path d="M35.4713 59.3585C35.1631 59.7496 34.7586 60.054 34.2973 60.2419C34.1696 60.2972 34.0385 60.3443 33.9049 60.383L33.3795 59.6454C33.4351 59.4018 33.5077 59.1624 33.5968 58.9289C33.6864 58.6808 33.8109 58.4466 33.9665 58.2335C34.6962 57.2706 36.1784 58.3794 35.4713 59.3585Z" fill="#E8368F"/>
<path opacity="0.1" d="M25.774 58.8755C25.9962 59.1332 26.1438 59.3342 26.1438 59.3342L25.7027 60.6392C25.7027 60.6392 25.4546 60.4641 25.1416 60.1885C25.2115 59.7707 25.3842 59.3769 25.6443 59.0425C25.6832 58.9825 25.7303 58.9257 25.774 58.8755Z" fill="black"/>
<path opacity="0.1" d="M27.0844 58.5901C26.9487 58.7679 26.8036 58.9383 26.6498 59.1007C26.6118 58.8736 26.5852 58.6448 26.5703 58.415C26.7558 58.4181 26.9356 58.4794 27.0844 58.5901Z" fill="black"/>
<path d="M29.2702 63.771L28.161 64.2573C28.161 64.2573 27.9194 64.1406 27.5708 63.9234C26.4048 63.2053 24.0616 61.4011 25.6329 59.2743C27.2043 57.1475 28.5145 60.9634 29.0302 62.8276C29.194 63.3868 29.2702 63.771 29.2702 63.771Z" fill="#E8368F"/>
<path opacity="0.1" d="M32.2249 59.0717C32.3857 58.9048 32.6046 58.8062 32.8362 58.7961C32.8232 59.2257 32.7811 59.5678 32.7811 59.5678C32.5847 59.4151 32.3989 59.2494 32.2249 59.0717Z" fill="black"/>
<path opacity="0.1" d="M34.2973 60.242C34.1696 60.2973 34.0385 60.3444 33.9049 60.383L33.3795 59.6454C33.4351 59.4018 33.5077 59.1624 33.5968 58.929C33.9389 59.13 34.1886 59.6211 34.2973 60.242Z" fill="black"/>
<path d="M31.5406 65.0614L31.3541 65.0938C27.6357 65.6595 30.1281 63.6543 30.1281 63.6543C30.1281 63.6543 30.2903 63.5003 30.5222 63.2474C30.9714 62.753 31.646 61.8858 31.7238 61.085C31.8406 59.8806 31.9752 58.7507 33.3973 59.083C34.8 59.4089 35.0676 64.3562 31.5406 65.0614Z" fill="#E8368F"/>
<path d="M31.4773 74.3142H24.373V76.1816H31.4773V74.3142Z" fill="#474157"/>
<path d="M32.5265 68.2451H23.2443V74.7616H32.5265V68.2451Z" fill="#474157"/>
<path opacity="0.1" d="M31.4092 74.3142H24.3049V76.1816H31.4092V74.3142Z" fill="black"/>
<path opacity="0.1" d="M32.4973 68.2466H23.2151V74.7631H32.4973V68.2466Z" fill="black"/>
<path d="M31.9443 74.3142H24.84V76.1816H31.9443V74.3142Z" fill="#474157"/>
<path opacity="0.1" d="M29.0367 62.8357C29.1989 63.3933 29.2767 63.7775 29.2767 63.7775L28.1675 64.2638C28.1675 64.2638 27.9259 64.1471 27.5773 63.9299C28.0119 63.3739 28.5016 62.9573 29.0367 62.8357Z" fill="black"/>
<path opacity="0.1" d="M31.5406 65.0613L31.3541 65.0937C27.6357 65.6594 30.1281 63.6542 30.1281 63.6542C30.1281 63.6542 30.2903 63.5002 30.5222 63.2473C31.2162 63.8082 31.5098 64.429 31.5406 65.0613Z" fill="black"/>
<path d="M25.5016 68.6147C25.5016 68.6147 27.5838 61.158 30.5043 63.4599C33.4249 65.7617 29.3157 69.2956 29.3157 69.2956L25.5016 68.6147Z" fill="#E8368F"/>
<path opacity="0.1" d="M26.5524 60.6766C26.6814 60.6766 26.7859 60.5721 26.7859 60.4431C26.7859 60.3142 26.6814 60.2097 26.5524 60.2097C26.4235 60.2097 26.3189 60.3142 26.3189 60.4431C26.3189 60.5721 26.4235 60.6766 26.5524 60.6766Z" fill="black"/>
<path opacity="0.1" d="M26.533 61.7674C26.6619 61.7674 26.7665 61.6629 26.7665 61.534C26.7665 61.405 26.6619 61.3005 26.533 61.3005C26.404 61.3005 26.2994 61.405 26.2994 61.534C26.2994 61.6629 26.404 61.7674 26.533 61.7674Z" fill="black"/>
<path opacity="0.1" d="M33.3065 60.8904C33.4354 60.8904 33.54 60.7859 33.54 60.657C33.54 60.5281 33.4354 60.4236 33.3065 60.4236C33.1775 60.4236 33.0729 60.5281 33.0729 60.657C33.0729 60.7859 33.1775 60.8904 33.3065 60.8904Z" fill="black"/>
<path opacity="0.1" d="M27.8563 66.4749C27.9852 66.4749 28.0898 66.3704 28.0898 66.2415C28.0898 66.1126 27.9852 66.0081 27.8563 66.0081C27.7273 66.0081 27.6227 66.1126 27.6227 66.2415C27.6227 66.3704 27.7273 66.4749 27.8563 66.4749Z" fill="black"/>
<path opacity="0.1" d="M32.82 62.7012C32.949 62.7012 33.0535 62.5967 33.0535 62.4678C33.0535 62.3389 32.949 62.2344 32.82 62.2344C32.691 62.2344 32.5865 62.3389 32.5865 62.4678C32.5865 62.5967 32.691 62.7012 32.82 62.7012Z" fill="black"/>
<path opacity="0.1" d="M30.407 65.1131C30.536 65.1131 30.6405 65.0086 30.6405 64.8797C30.6405 64.7508 30.536 64.6462 30.407 64.6462C30.2781 64.6462 30.1735 64.7508 30.1735 64.8797C30.1735 65.0086 30.2781 65.1131 30.407 65.1131Z" fill="black"/>
<path opacity="0.1" d="M27.3503 61.1434C27.4792 61.1434 27.5838 61.0389 27.5838 60.9099C27.5838 60.781 27.4792 60.6765 27.3503 60.6765C27.2213 60.6765 27.1168 60.781 27.1168 60.9099C27.1168 61.0389 27.2213 61.1434 27.3503 61.1434Z" fill="black"/>
<path opacity="0.1" d="M32.6643 61.5923C32.7933 61.5923 32.8978 61.4878 32.8978 61.3589C32.8978 61.23 32.7933 61.1255 32.6643 61.1255C32.5353 61.1255 32.4308 61.23 32.4308 61.3589C32.4308 61.4878 32.5353 61.5923 32.6643 61.5923Z" fill="black"/>
<path opacity="0.1" d="M31.8665 63.4014C31.9955 63.4014 32.1 63.2969 32.1 63.168C32.1 63.0391 31.9955 62.9346 31.8665 62.9346C31.7375 62.9346 31.633 63.0391 31.633 63.168C31.633 63.2969 31.7375 63.4014 31.8665 63.4014Z" fill="black"/>
<path opacity="0.1" d="M29.413 66.2996C29.5419 66.2996 29.6465 66.1951 29.6465 66.0662C29.6465 65.9373 29.5419 65.8328 29.413 65.8328C29.284 65.8328 29.1794 65.9373 29.1794 66.0662C29.1794 66.1951 29.284 66.2996 29.413 66.2996Z" fill="black"/>
<path opacity="0.1" d="M28.907 65.1522C29.036 65.1522 29.1405 65.0477 29.1405 64.9187C29.1405 64.7898 29.036 64.6853 28.907 64.6853C28.7781 64.6853 28.6735 64.7898 28.6735 64.9187C28.6735 65.0477 28.7781 65.1522 28.907 65.1522Z" fill="black"/>
<path opacity="0.1" d="M27.7006 62.565C27.8295 62.565 27.9341 62.4605 27.9341 62.3316C27.9341 62.2027 27.8295 62.0981 27.7006 62.0981C27.5716 62.0981 27.467 62.2027 27.467 62.3316C27.467 62.4605 27.5716 62.565 27.7006 62.565Z" fill="black"/>
<path opacity="0.1" d="M31.9443 74.3142H24.84V74.9967H31.9443V74.3142Z" fill="black"/>
<path d="M32.9935 68.2451H23.7114V74.7616H32.9935V68.2451Z" fill="#474157"/>
<path opacity="0.1" d="M29.7244 67.3502C29.8533 67.3502 29.9579 67.2457 29.9579 67.1167C29.9579 66.9878 29.8533 66.8833 29.7244 66.8833C29.5954 66.8833 29.4908 66.9878 29.4908 67.1167C29.4908 67.2457 29.5954 67.3502 29.7244 67.3502Z" fill="black"/>
<path opacity="0.1" d="M28.3232 67.6422C28.4522 67.6422 28.5567 67.5376 28.5567 67.4087C28.5567 67.2798 28.4522 67.1753 28.3232 67.1753C28.1943 67.1753 28.0897 67.2798 28.0897 67.4087C28.0897 67.5376 28.1943 67.6422 28.3232 67.6422Z" fill="black"/>
<path d="M50.5767 93.1489C50.5767 93.1489 51.733 94.6613 50.0432 96.9437C48.3535 99.2261 46.9621 101.158 47.52 102.578C47.52 102.578 50.0724 98.3378 52.1497 98.2795C54.227 98.2211 52.8616 95.7004 50.5767 93.1489Z" fill="#E8368F"/>
<path opacity="0.1" d="M50.5768 93.1489C50.6778 93.2946 50.7575 93.454 50.8135 93.6223C52.8389 96.0019 53.9189 98.2227 51.9713 98.2795C50.1567 98.3362 47.9805 101.578 47.4584 102.389C47.4762 102.452 47.4973 102.515 47.52 102.575C47.52 102.575 50.0724 98.3346 52.1497 98.2762C54.227 98.2179 52.8616 95.7004 50.5768 93.1489Z" fill="black"/>
<path d="M52.727 95.0778C52.727 95.6095 52.667 96.0407 52.594 96.0407C52.5211 96.0407 52.4611 95.6095 52.4611 95.0778C52.4611 94.5461 52.5357 94.7957 52.6086 94.7957C52.6816 94.7957 52.727 94.5444 52.727 95.0778Z" fill="#FFD037"/>
<path d="M53.4649 95.7132C52.9979 95.9677 52.5908 96.1217 52.5552 96.0568C52.5195 95.992 52.8698 95.7326 53.3384 95.4781C53.8071 95.2237 53.6206 95.4084 53.6627 95.4781C53.7049 95.5478 53.9335 95.4587 53.4649 95.7132Z" fill="#FFD037"/>
<path d="M44.4648 93.1489C44.4648 93.1489 43.3086 94.6613 44.9983 96.9437C46.6881 99.2261 48.0794 101.158 47.52 102.578C47.52 102.578 44.9692 98.3378 42.8919 98.2795C40.8146 98.2211 42.18 95.7004 44.4648 93.1489Z" fill="#E8368F"/>
<path opacity="0.1" d="M44.4648 93.1489C44.3638 93.2946 44.2841 93.454 44.2281 93.6223C42.2027 96.0019 41.1227 98.2227 43.0702 98.2795C44.8848 98.3362 47.0611 101.578 47.5832 102.389C47.5656 102.452 47.5444 102.514 47.52 102.575C47.52 102.575 44.9692 98.3362 42.8919 98.2811C40.8146 98.226 42.18 95.7004 44.4648 93.1489Z" fill="black"/>
<path d="M42.3146 95.0778C42.3146 95.6095 42.3746 96.0407 42.4476 96.0407C42.5205 96.0407 42.5805 95.6095 42.5805 95.0778C42.5805 94.5461 42.5059 94.7957 42.433 94.7957C42.36 94.7957 42.3146 94.5444 42.3146 95.0778Z" fill="#FFD037"/>
<path d="M41.5767 95.7132C42.0438 95.9677 42.4508 96.1217 42.4865 96.0568C42.5221 95.992 42.1719 95.7326 41.7032 95.4781C41.2346 95.2237 41.421 95.4084 41.3789 95.4781C41.3367 95.5478 41.1081 95.4587 41.5767 95.7132Z" fill="#FFD037"/>
<path opacity="0.1" d="M47.52 114.151C54.2012 114.151 59.6173 113.32 59.6173 112.295C59.6173 111.269 54.2012 110.438 47.52 110.438C40.8389 110.438 35.4227 111.269 35.4227 112.295C35.4227 113.32 40.8389 114.151 47.52 114.151Z" fill="#E8368F"/>
<path d="M53.747 100.542L53.6886 101.014L53.6076 101.682L53.5751 101.959L53.4924 102.627L53.4584 102.906L53.3773 103.572L52.4595 111.158C52.3768 111.836 51.2692 112.363 49.9346 112.363H45.1151C43.7789 112.363 42.6827 111.836 42.5919 111.158L41.6643 103.572L41.5832 102.906L41.5492 102.627L41.4665 101.959L41.434 101.682L41.353 101.014L41.2946 100.542C41.2476 100.16 41.8459 99.8354 42.6032 99.8354H52.44C53.1941 99.8354 53.7941 100.16 53.747 100.542Z" fill="#65617D"/>
<path d="M53.6886 101.014L53.6075 101.68H41.434L41.353 101.014H53.6886Z" fill="#9D9CB5"/>
<path d="M53.5751 101.959L53.494 102.627H41.5492L41.4665 101.959H53.5751Z" fill="#9D9CB5"/>
<path d="M53.4584 102.904L53.3773 103.572H41.6643L41.5833 102.904H53.4584Z" fill="#9D9CB5"/>
</g>
<defs>
<linearGradient id="paint0_linear" x1="109.973" y1="128.706" x2="109.973" y2="45.0465" gradientUnits="userSpaceOnUse">
<stop stop-color="#808080" stop-opacity="0.25"/>
<stop offset="0.54" stop-color="#808080" stop-opacity="0.12"/>
<stop offset="1" stop-color="#808080" stop-opacity="0.1"/>
</linearGradient>
<clipPath id="clip0">
<rect width="162" height="129.236" fill="white"/>
</clipPath>
</defs>
</svg>
